%TF.GenerationSoftware,KiCad,Pcbnew,9.0.2*%
%TF.CreationDate,2025-06-20T17:03:44-04:00*%
%TF.ProjectId,HackPad,4861636b-5061-4642-9e6b-696361645f70,rev?*%
%TF.SameCoordinates,Original*%
%TF.FileFunction,Soldermask,Top*%
%TF.FilePolarity,Negative*%
%FSLAX46Y46*%
G04 Gerber Fmt 4.6, Leading zero omitted, Abs format (unit mm)*
G04 Created by KiCad (PCBNEW 9.0.2) date 2025-06-20 17:03:44*
%MOMM*%
%LPD*%
G01*
G04 APERTURE LIST*
G04 Aperture macros list*
%AMRoundRect*
0 Rectangle with rounded corners*
0 $1 Rounding radius*
0 $2 $3 $4 $5 $6 $7 $8 $9 X,Y pos of 4 corners*
0 Add a 4 corners polygon primitive as box body*
4,1,4,$2,$3,$4,$5,$6,$7,$8,$9,$2,$3,0*
0 Add four circle primitives for the rounded corners*
1,1,$1+$1,$2,$3*
1,1,$1+$1,$4,$5*
1,1,$1+$1,$6,$7*
1,1,$1+$1,$8,$9*
0 Add four rect primitives between the rounded corners*
20,1,$1+$1,$2,$3,$4,$5,0*
20,1,$1+$1,$4,$5,$6,$7,0*
20,1,$1+$1,$6,$7,$8,$9,0*
20,1,$1+$1,$8,$9,$2,$3,0*%
G04 Aperture macros list end*
%ADD10C,1.700000*%
%ADD11C,4.000000*%
%ADD12C,2.200000*%
%ADD13RoundRect,0.152400X1.063600X0.609600X-1.063600X0.609600X-1.063600X-0.609600X1.063600X-0.609600X0*%
%ADD14C,1.524000*%
%ADD15RoundRect,0.152400X-1.063600X-0.609600X1.063600X-0.609600X1.063600X0.609600X-1.063600X0.609600X0*%
%ADD16R,1.600000X0.850000*%
G04 APERTURE END LIST*
D10*
%TO.C,SW3*%
X232380000Y-101080000D03*
D11*
X237460000Y-101080000D03*
D10*
X242540000Y-101080000D03*
D12*
X240000000Y-96000000D03*
X233650000Y-98540000D03*
%TD*%
D10*
%TO.C,SW4*%
X213380000Y-101080000D03*
D11*
X218460000Y-101080000D03*
D10*
X223540000Y-101080000D03*
D12*
X221000000Y-96000000D03*
X214650000Y-98540000D03*
%TD*%
D13*
%TO.C,U1*%
X200300000Y-71975000D03*
D14*
X201135000Y-71975000D03*
D13*
X200300000Y-74515000D03*
D14*
X201135000Y-74515000D03*
D13*
X200300000Y-77055000D03*
D14*
X201135000Y-77055000D03*
D13*
X200300000Y-79595000D03*
D14*
X201135000Y-79595000D03*
D13*
X200300000Y-82135000D03*
D14*
X201135000Y-82135000D03*
D13*
X200300000Y-84675000D03*
D14*
X201135000Y-84675000D03*
D13*
X200300000Y-87215000D03*
D14*
X201135000Y-87215000D03*
X216375000Y-87215000D03*
D15*
X217210000Y-87215000D03*
D14*
X216375000Y-84675000D03*
D15*
X217210000Y-84675000D03*
D14*
X216375000Y-82135000D03*
D15*
X217210000Y-82135000D03*
D14*
X216375000Y-79595000D03*
D15*
X217210000Y-79595000D03*
D14*
X216375000Y-77055000D03*
D15*
X217210000Y-77055000D03*
D14*
X216375000Y-74515000D03*
D15*
X217210000Y-74515000D03*
D14*
X216375000Y-71975000D03*
D15*
X217210000Y-71975000D03*
%TD*%
D10*
%TO.C,SW2*%
X232390000Y-81900000D03*
D11*
X237470000Y-81900000D03*
D10*
X242550000Y-81900000D03*
D12*
X240010000Y-76820000D03*
X233660000Y-79360000D03*
%TD*%
D10*
%TO.C,SW5*%
X194205000Y-101105000D03*
D11*
X199285000Y-101105000D03*
D10*
X204365000Y-101105000D03*
D12*
X201825000Y-96025000D03*
X195475000Y-98565000D03*
%TD*%
D10*
%TO.C,SW1*%
X251530000Y-101090000D03*
D11*
X256610000Y-101090000D03*
D10*
X261690000Y-101090000D03*
D12*
X259150000Y-96010000D03*
X252800000Y-98550000D03*
%TD*%
D16*
%TO.C,D1*%
X250850000Y-80825000D03*
X250850000Y-82575000D03*
X254350000Y-82575000D03*
X254350000Y-80825000D03*
%TD*%
%TO.C,D2*%
X259600000Y-80700000D03*
X259600000Y-82450000D03*
X263100000Y-82450000D03*
X263100000Y-80700000D03*
%TD*%
M02*
