%TF.GenerationSoftware,KiCad,Pcbnew,9.0.2*%
%TF.CreationDate,2025-06-20T17:03:44-04:00*%
%TF.ProjectId,HackPad,4861636b-5061-4642-9e6b-696361645f70,rev?*%
%TF.SameCoordinates,Original*%
%TF.FileFunction,Legend,Top*%
%TF.FilePolarity,Positive*%
%FSLAX46Y46*%
G04 Gerber Fmt 4.6, Leading zero omitted, Abs format (unit mm)*
G04 Created by KiCad (PCBNEW 9.0.2) date 2025-06-20 17:03:44*
%MOMM*%
%LPD*%
G01*
G04 APERTURE LIST*
%ADD10C,0.100000*%
%ADD11C,0.150000*%
%ADD12C,0.101600*%
%ADD13C,0.120000*%
%ADD14C,0.127000*%
%ADD15C,0.504000*%
G04 APERTURE END LIST*
D10*
X205183646Y-81172419D02*
X205850312Y-82172419D01*
X205850312Y-81172419D02*
X205183646Y-82172419D01*
X206231265Y-82172419D02*
X206231265Y-81172419D01*
X206659836Y-81886704D02*
X207136026Y-81886704D01*
X206564598Y-82172419D02*
X206897931Y-81172419D01*
X206897931Y-81172419D02*
X207231264Y-82172419D01*
X207755074Y-81172419D02*
X207945550Y-81172419D01*
X207945550Y-81172419D02*
X208040788Y-81220038D01*
X208040788Y-81220038D02*
X208136026Y-81315276D01*
X208136026Y-81315276D02*
X208183645Y-81505752D01*
X208183645Y-81505752D02*
X208183645Y-81839085D01*
X208183645Y-81839085D02*
X208136026Y-82029561D01*
X208136026Y-82029561D02*
X208040788Y-82124800D01*
X208040788Y-82124800D02*
X207945550Y-82172419D01*
X207945550Y-82172419D02*
X207755074Y-82172419D01*
X207755074Y-82172419D02*
X207659836Y-82124800D01*
X207659836Y-82124800D02*
X207564598Y-82029561D01*
X207564598Y-82029561D02*
X207516979Y-81839085D01*
X207516979Y-81839085D02*
X207516979Y-81505752D01*
X207516979Y-81505752D02*
X207564598Y-81315276D01*
X207564598Y-81315276D02*
X207659836Y-81220038D01*
X207659836Y-81220038D02*
X207755074Y-81172419D01*
X209374122Y-82172419D02*
X209374122Y-81172419D01*
X209374122Y-81648609D02*
X209945550Y-81648609D01*
X209945550Y-82172419D02*
X209945550Y-81172419D01*
X210421741Y-81648609D02*
X210755074Y-81648609D01*
X210897931Y-82172419D02*
X210421741Y-82172419D01*
X210421741Y-82172419D02*
X210421741Y-81172419D01*
X210421741Y-81172419D02*
X210897931Y-81172419D01*
X211897931Y-82172419D02*
X211564598Y-81696228D01*
X211326503Y-82172419D02*
X211326503Y-81172419D01*
X211326503Y-81172419D02*
X211707455Y-81172419D01*
X211707455Y-81172419D02*
X211802693Y-81220038D01*
X211802693Y-81220038D02*
X211850312Y-81267657D01*
X211850312Y-81267657D02*
X211897931Y-81362895D01*
X211897931Y-81362895D02*
X211897931Y-81505752D01*
X211897931Y-81505752D02*
X211850312Y-81600990D01*
X211850312Y-81600990D02*
X211802693Y-81648609D01*
X211802693Y-81648609D02*
X211707455Y-81696228D01*
X211707455Y-81696228D02*
X211326503Y-81696228D01*
X212326503Y-81648609D02*
X212659836Y-81648609D01*
X212802693Y-82172419D02*
X212326503Y-82172419D01*
X212326503Y-82172419D02*
X212326503Y-81172419D01*
X212326503Y-81172419D02*
X212802693Y-81172419D01*
X221956265Y-113361704D02*
X222432455Y-113361704D01*
X221861027Y-113647419D02*
X222194360Y-112647419D01*
X222194360Y-112647419D02*
X222527693Y-113647419D01*
X222861027Y-112980752D02*
X222861027Y-113647419D01*
X222861027Y-113075990D02*
X222908646Y-113028371D01*
X222908646Y-113028371D02*
X223003884Y-112980752D01*
X223003884Y-112980752D02*
X223146741Y-112980752D01*
X223146741Y-112980752D02*
X223241979Y-113028371D01*
X223241979Y-113028371D02*
X223289598Y-113123609D01*
X223289598Y-113123609D02*
X223289598Y-113647419D01*
X224194360Y-113647419D02*
X224194360Y-112647419D01*
X224194360Y-113599800D02*
X224099122Y-113647419D01*
X224099122Y-113647419D02*
X223908646Y-113647419D01*
X223908646Y-113647419D02*
X223813408Y-113599800D01*
X223813408Y-113599800D02*
X223765789Y-113552180D01*
X223765789Y-113552180D02*
X223718170Y-113456942D01*
X223718170Y-113456942D02*
X223718170Y-113171228D01*
X223718170Y-113171228D02*
X223765789Y-113075990D01*
X223765789Y-113075990D02*
X223813408Y-113028371D01*
X223813408Y-113028371D02*
X223908646Y-112980752D01*
X223908646Y-112980752D02*
X224099122Y-112980752D01*
X224099122Y-112980752D02*
X224194360Y-113028371D01*
X224670551Y-113647419D02*
X224670551Y-112980752D01*
X224670551Y-113171228D02*
X224718170Y-113075990D01*
X224718170Y-113075990D02*
X224765789Y-113028371D01*
X224765789Y-113028371D02*
X224861027Y-112980752D01*
X224861027Y-112980752D02*
X224956265Y-112980752D01*
X225670551Y-113599800D02*
X225575313Y-113647419D01*
X225575313Y-113647419D02*
X225384837Y-113647419D01*
X225384837Y-113647419D02*
X225289599Y-113599800D01*
X225289599Y-113599800D02*
X225241980Y-113504561D01*
X225241980Y-113504561D02*
X225241980Y-113123609D01*
X225241980Y-113123609D02*
X225289599Y-113028371D01*
X225289599Y-113028371D02*
X225384837Y-112980752D01*
X225384837Y-112980752D02*
X225575313Y-112980752D01*
X225575313Y-112980752D02*
X225670551Y-113028371D01*
X225670551Y-113028371D02*
X225718170Y-113123609D01*
X225718170Y-113123609D02*
X225718170Y-113218847D01*
X225718170Y-113218847D02*
X225241980Y-113314085D01*
X226051504Y-112980752D02*
X226241980Y-113647419D01*
X226241980Y-113647419D02*
X226432456Y-113171228D01*
X226432456Y-113171228D02*
X226622932Y-113647419D01*
X226622932Y-113647419D02*
X226813408Y-112980752D01*
X227241980Y-112647419D02*
X227146742Y-112837895D01*
X227622932Y-113599800D02*
X227718170Y-113647419D01*
X227718170Y-113647419D02*
X227908646Y-113647419D01*
X227908646Y-113647419D02*
X228003884Y-113599800D01*
X228003884Y-113599800D02*
X228051503Y-113504561D01*
X228051503Y-113504561D02*
X228051503Y-113456942D01*
X228051503Y-113456942D02*
X228003884Y-113361704D01*
X228003884Y-113361704D02*
X227908646Y-113314085D01*
X227908646Y-113314085D02*
X227765789Y-113314085D01*
X227765789Y-113314085D02*
X227670551Y-113266466D01*
X227670551Y-113266466D02*
X227622932Y-113171228D01*
X227622932Y-113171228D02*
X227622932Y-113123609D01*
X227622932Y-113123609D02*
X227670551Y-113028371D01*
X227670551Y-113028371D02*
X227765789Y-112980752D01*
X227765789Y-112980752D02*
X227908646Y-112980752D01*
X227908646Y-112980752D02*
X228003884Y-113028371D01*
X229241980Y-113647419D02*
X229241980Y-112647419D01*
X229241980Y-113123609D02*
X229813408Y-113123609D01*
X229813408Y-113647419D02*
X229813408Y-112647419D01*
X230718170Y-113647419D02*
X230718170Y-113123609D01*
X230718170Y-113123609D02*
X230670551Y-113028371D01*
X230670551Y-113028371D02*
X230575313Y-112980752D01*
X230575313Y-112980752D02*
X230384837Y-112980752D01*
X230384837Y-112980752D02*
X230289599Y-113028371D01*
X230718170Y-113599800D02*
X230622932Y-113647419D01*
X230622932Y-113647419D02*
X230384837Y-113647419D01*
X230384837Y-113647419D02*
X230289599Y-113599800D01*
X230289599Y-113599800D02*
X230241980Y-113504561D01*
X230241980Y-113504561D02*
X230241980Y-113409323D01*
X230241980Y-113409323D02*
X230289599Y-113314085D01*
X230289599Y-113314085D02*
X230384837Y-113266466D01*
X230384837Y-113266466D02*
X230622932Y-113266466D01*
X230622932Y-113266466D02*
X230718170Y-113218847D01*
X231622932Y-113599800D02*
X231527694Y-113647419D01*
X231527694Y-113647419D02*
X231337218Y-113647419D01*
X231337218Y-113647419D02*
X231241980Y-113599800D01*
X231241980Y-113599800D02*
X231194361Y-113552180D01*
X231194361Y-113552180D02*
X231146742Y-113456942D01*
X231146742Y-113456942D02*
X231146742Y-113171228D01*
X231146742Y-113171228D02*
X231194361Y-113075990D01*
X231194361Y-113075990D02*
X231241980Y-113028371D01*
X231241980Y-113028371D02*
X231337218Y-112980752D01*
X231337218Y-112980752D02*
X231527694Y-112980752D01*
X231527694Y-112980752D02*
X231622932Y-113028371D01*
X232051504Y-113647419D02*
X232051504Y-112647419D01*
X232146742Y-113266466D02*
X232432456Y-113647419D01*
X232432456Y-112980752D02*
X232051504Y-113361704D01*
X232861028Y-112980752D02*
X232861028Y-113980752D01*
X232861028Y-113028371D02*
X232956266Y-112980752D01*
X232956266Y-112980752D02*
X233146742Y-112980752D01*
X233146742Y-112980752D02*
X233241980Y-113028371D01*
X233241980Y-113028371D02*
X233289599Y-113075990D01*
X233289599Y-113075990D02*
X233337218Y-113171228D01*
X233337218Y-113171228D02*
X233337218Y-113456942D01*
X233337218Y-113456942D02*
X233289599Y-113552180D01*
X233289599Y-113552180D02*
X233241980Y-113599800D01*
X233241980Y-113599800D02*
X233146742Y-113647419D01*
X233146742Y-113647419D02*
X232956266Y-113647419D01*
X232956266Y-113647419D02*
X232861028Y-113599800D01*
X234194361Y-113647419D02*
X234194361Y-113123609D01*
X234194361Y-113123609D02*
X234146742Y-113028371D01*
X234146742Y-113028371D02*
X234051504Y-112980752D01*
X234051504Y-112980752D02*
X233861028Y-112980752D01*
X233861028Y-112980752D02*
X233765790Y-113028371D01*
X234194361Y-113599800D02*
X234099123Y-113647419D01*
X234099123Y-113647419D02*
X233861028Y-113647419D01*
X233861028Y-113647419D02*
X233765790Y-113599800D01*
X233765790Y-113599800D02*
X233718171Y-113504561D01*
X233718171Y-113504561D02*
X233718171Y-113409323D01*
X233718171Y-113409323D02*
X233765790Y-113314085D01*
X233765790Y-113314085D02*
X233861028Y-113266466D01*
X233861028Y-113266466D02*
X234099123Y-113266466D01*
X234099123Y-113266466D02*
X234194361Y-113218847D01*
X235099123Y-113647419D02*
X235099123Y-112647419D01*
X235099123Y-113599800D02*
X235003885Y-113647419D01*
X235003885Y-113647419D02*
X234813409Y-113647419D01*
X234813409Y-113647419D02*
X234718171Y-113599800D01*
X234718171Y-113599800D02*
X234670552Y-113552180D01*
X234670552Y-113552180D02*
X234622933Y-113456942D01*
X234622933Y-113456942D02*
X234622933Y-113171228D01*
X234622933Y-113171228D02*
X234670552Y-113075990D01*
X234670552Y-113075990D02*
X234718171Y-113028371D01*
X234718171Y-113028371D02*
X234813409Y-112980752D01*
X234813409Y-112980752D02*
X235003885Y-112980752D01*
X235003885Y-112980752D02*
X235099123Y-113028371D01*
D11*
X236126667Y-93613200D02*
X236269524Y-93660819D01*
X236269524Y-93660819D02*
X236507619Y-93660819D01*
X236507619Y-93660819D02*
X236602857Y-93613200D01*
X236602857Y-93613200D02*
X236650476Y-93565580D01*
X236650476Y-93565580D02*
X236698095Y-93470342D01*
X236698095Y-93470342D02*
X236698095Y-93375104D01*
X236698095Y-93375104D02*
X236650476Y-93279866D01*
X236650476Y-93279866D02*
X236602857Y-93232247D01*
X236602857Y-93232247D02*
X236507619Y-93184628D01*
X236507619Y-93184628D02*
X236317143Y-93137009D01*
X236317143Y-93137009D02*
X236221905Y-93089390D01*
X236221905Y-93089390D02*
X236174286Y-93041771D01*
X236174286Y-93041771D02*
X236126667Y-92946533D01*
X236126667Y-92946533D02*
X236126667Y-92851295D01*
X236126667Y-92851295D02*
X236174286Y-92756057D01*
X236174286Y-92756057D02*
X236221905Y-92708438D01*
X236221905Y-92708438D02*
X236317143Y-92660819D01*
X236317143Y-92660819D02*
X236555238Y-92660819D01*
X236555238Y-92660819D02*
X236698095Y-92708438D01*
X237031429Y-92660819D02*
X237269524Y-93660819D01*
X237269524Y-93660819D02*
X237460000Y-92946533D01*
X237460000Y-92946533D02*
X237650476Y-93660819D01*
X237650476Y-93660819D02*
X237888572Y-92660819D01*
X238174286Y-92660819D02*
X238793333Y-92660819D01*
X238793333Y-92660819D02*
X238460000Y-93041771D01*
X238460000Y-93041771D02*
X238602857Y-93041771D01*
X238602857Y-93041771D02*
X238698095Y-93089390D01*
X238698095Y-93089390D02*
X238745714Y-93137009D01*
X238745714Y-93137009D02*
X238793333Y-93232247D01*
X238793333Y-93232247D02*
X238793333Y-93470342D01*
X238793333Y-93470342D02*
X238745714Y-93565580D01*
X238745714Y-93565580D02*
X238698095Y-93613200D01*
X238698095Y-93613200D02*
X238602857Y-93660819D01*
X238602857Y-93660819D02*
X238317143Y-93660819D01*
X238317143Y-93660819D02*
X238221905Y-93613200D01*
X238221905Y-93613200D02*
X238174286Y-93565580D01*
X217126667Y-93613200D02*
X217269524Y-93660819D01*
X217269524Y-93660819D02*
X217507619Y-93660819D01*
X217507619Y-93660819D02*
X217602857Y-93613200D01*
X217602857Y-93613200D02*
X217650476Y-93565580D01*
X217650476Y-93565580D02*
X217698095Y-93470342D01*
X217698095Y-93470342D02*
X217698095Y-93375104D01*
X217698095Y-93375104D02*
X217650476Y-93279866D01*
X217650476Y-93279866D02*
X217602857Y-93232247D01*
X217602857Y-93232247D02*
X217507619Y-93184628D01*
X217507619Y-93184628D02*
X217317143Y-93137009D01*
X217317143Y-93137009D02*
X217221905Y-93089390D01*
X217221905Y-93089390D02*
X217174286Y-93041771D01*
X217174286Y-93041771D02*
X217126667Y-92946533D01*
X217126667Y-92946533D02*
X217126667Y-92851295D01*
X217126667Y-92851295D02*
X217174286Y-92756057D01*
X217174286Y-92756057D02*
X217221905Y-92708438D01*
X217221905Y-92708438D02*
X217317143Y-92660819D01*
X217317143Y-92660819D02*
X217555238Y-92660819D01*
X217555238Y-92660819D02*
X217698095Y-92708438D01*
X218031429Y-92660819D02*
X218269524Y-93660819D01*
X218269524Y-93660819D02*
X218460000Y-92946533D01*
X218460000Y-92946533D02*
X218650476Y-93660819D01*
X218650476Y-93660819D02*
X218888572Y-92660819D01*
X219698095Y-92994152D02*
X219698095Y-93660819D01*
X219460000Y-92613200D02*
X219221905Y-93327485D01*
X219221905Y-93327485D02*
X219840952Y-93327485D01*
D12*
X199771190Y-67248479D02*
X199771190Y-67762526D01*
X199771190Y-67762526D02*
X199801428Y-67823002D01*
X199801428Y-67823002D02*
X199831666Y-67853241D01*
X199831666Y-67853241D02*
X199892142Y-67883479D01*
X199892142Y-67883479D02*
X200013095Y-67883479D01*
X200013095Y-67883479D02*
X200073571Y-67853241D01*
X200073571Y-67853241D02*
X200103809Y-67823002D01*
X200103809Y-67823002D02*
X200134047Y-67762526D01*
X200134047Y-67762526D02*
X200134047Y-67248479D01*
X200769047Y-67883479D02*
X200406190Y-67883479D01*
X200587618Y-67883479D02*
X200587618Y-67248479D01*
X200587618Y-67248479D02*
X200527142Y-67339193D01*
X200527142Y-67339193D02*
X200466666Y-67399669D01*
X200466666Y-67399669D02*
X200406190Y-67429907D01*
D11*
X236136667Y-74433200D02*
X236279524Y-74480819D01*
X236279524Y-74480819D02*
X236517619Y-74480819D01*
X236517619Y-74480819D02*
X236612857Y-74433200D01*
X236612857Y-74433200D02*
X236660476Y-74385580D01*
X236660476Y-74385580D02*
X236708095Y-74290342D01*
X236708095Y-74290342D02*
X236708095Y-74195104D01*
X236708095Y-74195104D02*
X236660476Y-74099866D01*
X236660476Y-74099866D02*
X236612857Y-74052247D01*
X236612857Y-74052247D02*
X236517619Y-74004628D01*
X236517619Y-74004628D02*
X236327143Y-73957009D01*
X236327143Y-73957009D02*
X236231905Y-73909390D01*
X236231905Y-73909390D02*
X236184286Y-73861771D01*
X236184286Y-73861771D02*
X236136667Y-73766533D01*
X236136667Y-73766533D02*
X236136667Y-73671295D01*
X236136667Y-73671295D02*
X236184286Y-73576057D01*
X236184286Y-73576057D02*
X236231905Y-73528438D01*
X236231905Y-73528438D02*
X236327143Y-73480819D01*
X236327143Y-73480819D02*
X236565238Y-73480819D01*
X236565238Y-73480819D02*
X236708095Y-73528438D01*
X237041429Y-73480819D02*
X237279524Y-74480819D01*
X237279524Y-74480819D02*
X237470000Y-73766533D01*
X237470000Y-73766533D02*
X237660476Y-74480819D01*
X237660476Y-74480819D02*
X237898572Y-73480819D01*
X238231905Y-73576057D02*
X238279524Y-73528438D01*
X238279524Y-73528438D02*
X238374762Y-73480819D01*
X238374762Y-73480819D02*
X238612857Y-73480819D01*
X238612857Y-73480819D02*
X238708095Y-73528438D01*
X238708095Y-73528438D02*
X238755714Y-73576057D01*
X238755714Y-73576057D02*
X238803333Y-73671295D01*
X238803333Y-73671295D02*
X238803333Y-73766533D01*
X238803333Y-73766533D02*
X238755714Y-73909390D01*
X238755714Y-73909390D02*
X238184286Y-74480819D01*
X238184286Y-74480819D02*
X238803333Y-74480819D01*
X197951667Y-93638200D02*
X198094524Y-93685819D01*
X198094524Y-93685819D02*
X198332619Y-93685819D01*
X198332619Y-93685819D02*
X198427857Y-93638200D01*
X198427857Y-93638200D02*
X198475476Y-93590580D01*
X198475476Y-93590580D02*
X198523095Y-93495342D01*
X198523095Y-93495342D02*
X198523095Y-93400104D01*
X198523095Y-93400104D02*
X198475476Y-93304866D01*
X198475476Y-93304866D02*
X198427857Y-93257247D01*
X198427857Y-93257247D02*
X198332619Y-93209628D01*
X198332619Y-93209628D02*
X198142143Y-93162009D01*
X198142143Y-93162009D02*
X198046905Y-93114390D01*
X198046905Y-93114390D02*
X197999286Y-93066771D01*
X197999286Y-93066771D02*
X197951667Y-92971533D01*
X197951667Y-92971533D02*
X197951667Y-92876295D01*
X197951667Y-92876295D02*
X197999286Y-92781057D01*
X197999286Y-92781057D02*
X198046905Y-92733438D01*
X198046905Y-92733438D02*
X198142143Y-92685819D01*
X198142143Y-92685819D02*
X198380238Y-92685819D01*
X198380238Y-92685819D02*
X198523095Y-92733438D01*
X198856429Y-92685819D02*
X199094524Y-93685819D01*
X199094524Y-93685819D02*
X199285000Y-92971533D01*
X199285000Y-92971533D02*
X199475476Y-93685819D01*
X199475476Y-93685819D02*
X199713572Y-92685819D01*
X200570714Y-92685819D02*
X200094524Y-92685819D01*
X200094524Y-92685819D02*
X200046905Y-93162009D01*
X200046905Y-93162009D02*
X200094524Y-93114390D01*
X200094524Y-93114390D02*
X200189762Y-93066771D01*
X200189762Y-93066771D02*
X200427857Y-93066771D01*
X200427857Y-93066771D02*
X200523095Y-93114390D01*
X200523095Y-93114390D02*
X200570714Y-93162009D01*
X200570714Y-93162009D02*
X200618333Y-93257247D01*
X200618333Y-93257247D02*
X200618333Y-93495342D01*
X200618333Y-93495342D02*
X200570714Y-93590580D01*
X200570714Y-93590580D02*
X200523095Y-93638200D01*
X200523095Y-93638200D02*
X200427857Y-93685819D01*
X200427857Y-93685819D02*
X200189762Y-93685819D01*
X200189762Y-93685819D02*
X200094524Y-93638200D01*
X200094524Y-93638200D02*
X200046905Y-93590580D01*
X255276667Y-93623200D02*
X255419524Y-93670819D01*
X255419524Y-93670819D02*
X255657619Y-93670819D01*
X255657619Y-93670819D02*
X255752857Y-93623200D01*
X255752857Y-93623200D02*
X255800476Y-93575580D01*
X255800476Y-93575580D02*
X255848095Y-93480342D01*
X255848095Y-93480342D02*
X255848095Y-93385104D01*
X255848095Y-93385104D02*
X255800476Y-93289866D01*
X255800476Y-93289866D02*
X255752857Y-93242247D01*
X255752857Y-93242247D02*
X255657619Y-93194628D01*
X255657619Y-93194628D02*
X255467143Y-93147009D01*
X255467143Y-93147009D02*
X255371905Y-93099390D01*
X255371905Y-93099390D02*
X255324286Y-93051771D01*
X255324286Y-93051771D02*
X255276667Y-92956533D01*
X255276667Y-92956533D02*
X255276667Y-92861295D01*
X255276667Y-92861295D02*
X255324286Y-92766057D01*
X255324286Y-92766057D02*
X255371905Y-92718438D01*
X255371905Y-92718438D02*
X255467143Y-92670819D01*
X255467143Y-92670819D02*
X255705238Y-92670819D01*
X255705238Y-92670819D02*
X255848095Y-92718438D01*
X256181429Y-92670819D02*
X256419524Y-93670819D01*
X256419524Y-93670819D02*
X256610000Y-92956533D01*
X256610000Y-92956533D02*
X256800476Y-93670819D01*
X256800476Y-93670819D02*
X257038572Y-92670819D01*
X257943333Y-93670819D02*
X257371905Y-93670819D01*
X257657619Y-93670819D02*
X257657619Y-92670819D01*
X257657619Y-92670819D02*
X257562381Y-92813676D01*
X257562381Y-92813676D02*
X257467143Y-92908914D01*
X257467143Y-92908914D02*
X257371905Y-92956533D01*
X251861905Y-79404819D02*
X251861905Y-78404819D01*
X251861905Y-78404819D02*
X252100000Y-78404819D01*
X252100000Y-78404819D02*
X252242857Y-78452438D01*
X252242857Y-78452438D02*
X252338095Y-78547676D01*
X252338095Y-78547676D02*
X252385714Y-78642914D01*
X252385714Y-78642914D02*
X252433333Y-78833390D01*
X252433333Y-78833390D02*
X252433333Y-78976247D01*
X252433333Y-78976247D02*
X252385714Y-79166723D01*
X252385714Y-79166723D02*
X252338095Y-79261961D01*
X252338095Y-79261961D02*
X252242857Y-79357200D01*
X252242857Y-79357200D02*
X252100000Y-79404819D01*
X252100000Y-79404819D02*
X251861905Y-79404819D01*
X253385714Y-79404819D02*
X252814286Y-79404819D01*
X253100000Y-79404819D02*
X253100000Y-78404819D01*
X253100000Y-78404819D02*
X253004762Y-78547676D01*
X253004762Y-78547676D02*
X252909524Y-78642914D01*
X252909524Y-78642914D02*
X252814286Y-78690533D01*
X249628571Y-81187295D02*
X249171428Y-81187295D01*
X249400000Y-81187295D02*
X249400000Y-80387295D01*
X249400000Y-80387295D02*
X249323809Y-80501580D01*
X249323809Y-80501580D02*
X249247619Y-80577771D01*
X249247619Y-80577771D02*
X249171428Y-80615866D01*
X260611905Y-79279819D02*
X260611905Y-78279819D01*
X260611905Y-78279819D02*
X260850000Y-78279819D01*
X260850000Y-78279819D02*
X260992857Y-78327438D01*
X260992857Y-78327438D02*
X261088095Y-78422676D01*
X261088095Y-78422676D02*
X261135714Y-78517914D01*
X261135714Y-78517914D02*
X261183333Y-78708390D01*
X261183333Y-78708390D02*
X261183333Y-78851247D01*
X261183333Y-78851247D02*
X261135714Y-79041723D01*
X261135714Y-79041723D02*
X261088095Y-79136961D01*
X261088095Y-79136961D02*
X260992857Y-79232200D01*
X260992857Y-79232200D02*
X260850000Y-79279819D01*
X260850000Y-79279819D02*
X260611905Y-79279819D01*
X261564286Y-78375057D02*
X261611905Y-78327438D01*
X261611905Y-78327438D02*
X261707143Y-78279819D01*
X261707143Y-78279819D02*
X261945238Y-78279819D01*
X261945238Y-78279819D02*
X262040476Y-78327438D01*
X262040476Y-78327438D02*
X262088095Y-78375057D01*
X262088095Y-78375057D02*
X262135714Y-78470295D01*
X262135714Y-78470295D02*
X262135714Y-78565533D01*
X262135714Y-78565533D02*
X262088095Y-78708390D01*
X262088095Y-78708390D02*
X261516667Y-79279819D01*
X261516667Y-79279819D02*
X262135714Y-79279819D01*
X258378571Y-81062295D02*
X257921428Y-81062295D01*
X258150000Y-81062295D02*
X258150000Y-80262295D01*
X258150000Y-80262295D02*
X258073809Y-80376580D01*
X258073809Y-80376580D02*
X257997619Y-80452771D01*
X257997619Y-80452771D02*
X257921428Y-80490866D01*
D13*
%TO.C,SW3*%
X230475000Y-94095000D02*
X244445000Y-94095000D01*
X230475000Y-108065000D02*
X230475000Y-94095000D01*
X244445000Y-94095000D02*
X244445000Y-108065000D01*
X244445000Y-108065000D02*
X230475000Y-108065000D01*
%TO.C,SW4*%
X211475000Y-94095000D02*
X225445000Y-94095000D01*
X211475000Y-108065000D02*
X211475000Y-94095000D01*
X225445000Y-94095000D02*
X225445000Y-108065000D01*
X225445000Y-108065000D02*
X211475000Y-108065000D01*
D14*
%TO.C,U1*%
X199865000Y-88104000D02*
X199865000Y-70959000D01*
X201770000Y-90009000D02*
X215740000Y-90009000D01*
X204260000Y-69054000D02*
X204263728Y-68143728D01*
X204763728Y-67644000D02*
X212759000Y-67644000D01*
X213259000Y-68144000D02*
X213259000Y-69054000D01*
D10*
X215740000Y-69054000D02*
X201770000Y-69054000D01*
D14*
X215740000Y-69054000D02*
X201770000Y-69054000D01*
X217645000Y-88104000D02*
X217645000Y-70959000D01*
X199865000Y-70959000D02*
G75*
G02*
X201770000Y-69054000I1905001J-1D01*
G01*
X201770000Y-90009000D02*
G75*
G02*
X199865000Y-88104000I1J1905001D01*
G01*
X204263728Y-68143728D02*
G75*
G02*
X204763728Y-67644001I500018J-291D01*
G01*
X212759000Y-67644000D02*
G75*
G02*
X213259000Y-68144000I0J-500000D01*
G01*
X215740000Y-69054000D02*
G75*
G02*
X217645000Y-70959000I0J-1905000D01*
G01*
X217645000Y-88104000D02*
G75*
G02*
X215740000Y-90009000I-1905000J0D01*
G01*
D15*
X200057000Y-69295000D02*
G75*
G02*
X199553000Y-69295000I-252000J0D01*
G01*
X199553000Y-69295000D02*
G75*
G02*
X200057000Y-69295000I252000J0D01*
G01*
X201200000Y-70175000D02*
G75*
G02*
X200696000Y-70175000I-252000J0D01*
G01*
X200696000Y-70175000D02*
G75*
G02*
X201200000Y-70175000I252000J0D01*
G01*
D13*
%TO.C,SW2*%
X230485000Y-74915000D02*
X244455000Y-74915000D01*
X230485000Y-88885000D02*
X230485000Y-74915000D01*
X244455000Y-74915000D02*
X244455000Y-88885000D01*
X244455000Y-88885000D02*
X230485000Y-88885000D01*
%TO.C,SW5*%
X192300000Y-94120000D02*
X206270000Y-94120000D01*
X192300000Y-108090000D02*
X192300000Y-94120000D01*
X206270000Y-94120000D02*
X206270000Y-108090000D01*
X206270000Y-108090000D02*
X192300000Y-108090000D01*
%TO.C,SW1*%
X249625000Y-94105000D02*
X263595000Y-94105000D01*
X249625000Y-108075000D02*
X249625000Y-94105000D01*
X263595000Y-94105000D02*
X263595000Y-108075000D01*
X263595000Y-108075000D02*
X249625000Y-108075000D01*
%TO.C,D1*%
X249800000Y-79700000D02*
X249800000Y-83700000D01*
X249800000Y-79700000D02*
X255400000Y-79700000D01*
X249800000Y-83700000D02*
X254800000Y-83700000D01*
X255400000Y-83100000D02*
X254800000Y-83700000D01*
X255400000Y-83100000D02*
X255400000Y-79700000D01*
%TO.C,D2*%
X258550000Y-79575000D02*
X258550000Y-83575000D01*
X258550000Y-79575000D02*
X264150000Y-79575000D01*
X258550000Y-83575000D02*
X263550000Y-83575000D01*
X264150000Y-82975000D02*
X263550000Y-83575000D01*
X264150000Y-82975000D02*
X264150000Y-79575000D01*
%TD*%
M02*
