%TF.GenerationSoftware,KiCad,Pcbnew,9.0.2*%
%TF.CreationDate,2025-06-20T17:03:44-04:00*%
%TF.ProjectId,HackPad,4861636b-5061-4642-9e6b-696361645f70,rev?*%
%TF.SameCoordinates,Original*%
%TF.FileFunction,Copper,L1,Top*%
%TF.FilePolarity,Positive*%
%FSLAX46Y46*%
G04 Gerber Fmt 4.6, Leading zero omitted, Abs format (unit mm)*
G04 Created by KiCad (PCBNEW 9.0.2) date 2025-06-20 17:03:44*
%MOMM*%
%LPD*%
G01*
G04 APERTURE LIST*
G04 Aperture macros list*
%AMRoundRect*
0 Rectangle with rounded corners*
0 $1 Rounding radius*
0 $2 $3 $4 $5 $6 $7 $8 $9 X,Y pos of 4 corners*
0 Add a 4 corners polygon primitive as box body*
4,1,4,$2,$3,$4,$5,$6,$7,$8,$9,$2,$3,0*
0 Add four circle primitives for the rounded corners*
1,1,$1+$1,$2,$3*
1,1,$1+$1,$4,$5*
1,1,$1+$1,$6,$7*
1,1,$1+$1,$8,$9*
0 Add four rect primitives between the rounded corners*
20,1,$1+$1,$2,$3,$4,$5,0*
20,1,$1+$1,$4,$5,$6,$7,0*
20,1,$1+$1,$6,$7,$8,$9,0*
20,1,$1+$1,$8,$9,$2,$3,0*%
G04 Aperture macros list end*
%TA.AperFunction,ComponentPad*%
%ADD10C,2.200000*%
%TD*%
%TA.AperFunction,SMDPad,CuDef*%
%ADD11RoundRect,0.152400X1.063600X0.609600X-1.063600X0.609600X-1.063600X-0.609600X1.063600X-0.609600X0*%
%TD*%
%TA.AperFunction,ComponentPad*%
%ADD12C,1.524000*%
%TD*%
%TA.AperFunction,SMDPad,CuDef*%
%ADD13RoundRect,0.152400X-1.063600X-0.609600X1.063600X-0.609600X1.063600X0.609600X-1.063600X0.609600X0*%
%TD*%
%TA.AperFunction,SMDPad,CuDef*%
%ADD14R,1.600000X0.850000*%
%TD*%
%TA.AperFunction,Conductor*%
%ADD15C,0.200000*%
%TD*%
G04 APERTURE END LIST*
D10*
%TO.P,SW3,1,1*%
%TO.N,GND*%
X240000000Y-96000000D03*
%TO.P,SW3,2,2*%
%TO.N,Net-(U1-GPIO4{slash}MISO)*%
X233650000Y-98540000D03*
%TD*%
%TO.P,SW4,1,1*%
%TO.N,GND*%
X221000000Y-96000000D03*
%TO.P,SW4,2,2*%
%TO.N,Net-(U1-GPIO3{slash}MOSI)*%
X214650000Y-98540000D03*
%TD*%
D11*
%TO.P,U1,1,GPIO26/ADC0/A0*%
%TO.N,unconnected-(U1-GPIO26{slash}ADC0{slash}A0-Pad1)*%
X200300000Y-71975000D03*
D12*
X201135000Y-71975000D03*
D11*
%TO.P,U1,2,GPIO27/ADC1/A1*%
%TO.N,unconnected-(U1-GPIO27{slash}ADC1{slash}A1-Pad2)*%
X200300000Y-74515000D03*
D12*
X201135000Y-74515000D03*
D11*
%TO.P,U1,3,GPIO28/ADC2/A2*%
%TO.N,unconnected-(U1-GPIO28{slash}ADC2{slash}A2-Pad3)*%
X200300000Y-77055000D03*
D12*
X201135000Y-77055000D03*
D11*
%TO.P,U1,4,GPIO29/ADC3/A3*%
%TO.N,unconnected-(U1-GPIO29{slash}ADC3{slash}A3-Pad4)*%
X200300000Y-79595000D03*
D12*
X201135000Y-79595000D03*
D11*
%TO.P,U1,5,GPIO6/SDA*%
%TO.N,Net-(D2-VDD)*%
X200300000Y-82135000D03*
D12*
X201135000Y-82135000D03*
D11*
%TO.P,U1,6,GPIO7/SCL*%
%TO.N,unconnected-(U1-GPIO7{slash}SCL-Pad6)*%
X200300000Y-84675000D03*
D12*
X201135000Y-84675000D03*
D11*
%TO.P,U1,7,GPIO0/TX*%
%TO.N,Net-(U1-GPIO0{slash}TX)*%
X200300000Y-87215000D03*
D12*
X201135000Y-87215000D03*
%TO.P,U1,8,GPIO1/RX*%
%TO.N,Net-(U1-GPIO1{slash}RX)*%
X216375000Y-87215000D03*
D13*
X217210000Y-87215000D03*
D12*
%TO.P,U1,9,GPIO2/SCK*%
%TO.N,Net-(U1-GPIO2{slash}SCK)*%
X216375000Y-84675000D03*
D13*
X217210000Y-84675000D03*
D12*
%TO.P,U1,10,GPIO4/MISO*%
%TO.N,Net-(U1-GPIO4{slash}MISO)*%
X216375000Y-82135000D03*
D13*
X217210000Y-82135000D03*
D12*
%TO.P,U1,11,GPIO3/MOSI*%
%TO.N,Net-(U1-GPIO3{slash}MOSI)*%
X216375000Y-79595000D03*
D13*
X217210000Y-79595000D03*
D12*
%TO.P,U1,12,3V3*%
%TO.N,unconnected-(U1-3V3-Pad12)*%
X216375000Y-77055000D03*
D13*
X217210000Y-77055000D03*
D12*
%TO.P,U1,13,GND*%
%TO.N,GND*%
X216375000Y-74515000D03*
D13*
X217210000Y-74515000D03*
D12*
%TO.P,U1,14,VBUS*%
%TO.N,+5V*%
X216375000Y-71975000D03*
D13*
X217210000Y-71975000D03*
%TD*%
D10*
%TO.P,SW2,1,1*%
%TO.N,GND*%
X240010000Y-76820000D03*
%TO.P,SW2,2,2*%
%TO.N,Net-(U1-GPIO2{slash}SCK)*%
X233660000Y-79360000D03*
%TD*%
%TO.P,SW5,1,1*%
%TO.N,GND*%
X201825000Y-96025000D03*
%TO.P,SW5,2,2*%
%TO.N,Net-(U1-GPIO0{slash}TX)*%
X195475000Y-98565000D03*
%TD*%
%TO.P,SW1,1,1*%
%TO.N,GND*%
X259150000Y-96010000D03*
%TO.P,SW1,2,2*%
%TO.N,Net-(U1-GPIO1{slash}RX)*%
X252800000Y-98550000D03*
%TD*%
D14*
%TO.P,D1,1,DOUT*%
%TO.N,unconnected-(D1-DOUT-Pad1)*%
X250850000Y-80825000D03*
%TO.P,D1,2,VSS*%
%TO.N,GND*%
X250850000Y-82575000D03*
%TO.P,D1,3,DIN*%
%TO.N,Net-(D1-DIN)*%
X254350000Y-82575000D03*
%TO.P,D1,4,VDD*%
%TO.N,+5V*%
X254350000Y-80825000D03*
%TD*%
%TO.P,D2,1,VSS*%
%TO.N,Net-(D1-DIN)*%
X259600000Y-80700000D03*
%TO.P,D2,2,DIN*%
%TO.N,GND*%
X259600000Y-82450000D03*
%TO.P,D2,3,VDD*%
%TO.N,Net-(D2-VDD)*%
X263100000Y-82450000D03*
%TO.P,D2,4,DOUT*%
%TO.N,+5V*%
X263100000Y-80700000D03*
%TD*%
D15*
%TO.N,+5V*%
X255201000Y-79974000D02*
X254350000Y-80825000D01*
X263100000Y-80700000D02*
X262374000Y-79974000D01*
X254350000Y-80825000D02*
X245500000Y-71975000D01*
X262374000Y-79974000D02*
X255201000Y-79974000D01*
X245500000Y-71975000D02*
X216375000Y-71975000D01*
%TO.N,Net-(D1-DIN)*%
X257700000Y-82575000D02*
X254350000Y-82575000D01*
X259575000Y-80700000D02*
X257700000Y-82575000D01*
X259600000Y-80700000D02*
X259575000Y-80700000D01*
%TO.N,GND*%
X259150000Y-96010000D02*
X259150000Y-96000000D01*
X218727000Y-75789370D02*
X217452630Y-74515000D01*
X221000000Y-96000000D02*
X215312000Y-90312000D01*
X215312000Y-81694690D02*
X216348690Y-80658000D01*
X245765000Y-82575000D02*
X240010000Y-76820000D01*
X251576000Y-83301000D02*
X250850000Y-82575000D01*
X259600000Y-95450000D02*
X259600000Y-82450000D01*
X217452630Y-74515000D02*
X216375000Y-74515000D01*
X245765000Y-82575000D02*
X245765000Y-90235000D01*
X218727000Y-80396626D02*
X218727000Y-75789370D01*
X259600000Y-82450000D02*
X258749000Y-83301000D01*
X259100000Y-95950000D02*
X259600000Y-95450000D01*
X258749000Y-83301000D02*
X251576000Y-83301000D01*
X259150000Y-96000000D02*
X259100000Y-95950000D01*
X215312000Y-90312000D02*
X215312000Y-81694690D01*
X245765000Y-90235000D02*
X240000000Y-96000000D01*
X218465626Y-80658000D02*
X218727000Y-80396626D01*
X216348690Y-80658000D02*
X218465626Y-80658000D01*
X250850000Y-82575000D02*
X245765000Y-82575000D01*
%TO.N,Net-(D2-VDD)*%
X197775000Y-82475000D02*
X198115000Y-82135000D01*
X197600000Y-71000000D02*
X197600000Y-82300000D01*
X255139000Y-70912000D02*
X197688000Y-70912000D01*
X264201000Y-81349000D02*
X264201000Y-79974000D01*
X197688000Y-70912000D02*
X197600000Y-71000000D01*
X264201000Y-79974000D02*
X255139000Y-70912000D01*
X197600000Y-82300000D02*
X197775000Y-82475000D01*
X263100000Y-82450000D02*
X264201000Y-81349000D01*
X198115000Y-82135000D02*
X201135000Y-82135000D01*
%TO.N,Net-(U1-GPIO4{slash}MISO)*%
X217245000Y-82135000D02*
X216375000Y-82135000D01*
X233650000Y-98540000D02*
X217245000Y-82135000D01*
%TO.N,Net-(U1-GPIO3{slash}MOSI)*%
X214650000Y-81320000D02*
X216375000Y-79595000D01*
X214650000Y-98540000D02*
X214650000Y-81320000D01*
%TO.N,Net-(U1-GPIO0{slash}TX)*%
X195475000Y-92040000D02*
X200300000Y-87215000D01*
X195475000Y-98565000D02*
X195475000Y-92040000D01*
%TD*%
M02*
